# xmcd
#
# Track frame offsets:
#	150
#	15760
#	36213
#	53550
#	79828
#	96445
#	118580
#	134650
#
# Disc length: 2201 seconds
#
# Revision: 1
# Processed by: cddbd v1.5.1PL0 Copyright (c) Steve Scherf et al.
# Submitted via: audiograbber 1.83.01
#
DISCID=5f089708
DTITLE=Blues Boy Willie - Strange Things Happening
DYEAR=1989
DGENRE=East Texas Blues
TTITLE0=Leroy
TTITLE1=Blues in this town
TTITLE2=One more mile
TTITLE3=The Fly 
TTITLE4=Sweet Home Chicago
TTITLE5=Fishing Trip
TTITLE6=Let's Go, Let's Go, Let's Go
TTITLE7=Strange Things Happening
EXTD=
EXTT0=
EXTT1=
EXTT2=
EXTT3=
EXTT4=
EXTT5=
EXTT6=
EXTT7=
PLAYORDER=
